<svg xmlns="http://www.w3.org/2000/svg" xmlns:xlink="http://www.w3.org/1999/xlink" zoomAndPan="magnify" preserveAspectRatio="xMidYMid meet" version="1.0" viewBox="54.06 144.18 270.36 96"><defs><g><g id="id1"/></g></defs><g fill="rgb(100%, 100%, 100%)" fill-opacity="1"><g transform="translate(46.980471, 201.441726)"><g><path d="M 7.078125 0.0820312 L 16.085938 0.0820312 L 16.085938 -43.1875 L 34.984375 -16.566406 L 36.914062 -16.566406 L 56.054688 -43.1875 L 56.054688 0.0820312 L 65.0625 0.0820312 L 65.0625 -56.296875 L 54.605469 -56.296875 L 36.109375 -29.917969 L 17.53125 -56.296875 L 7.078125 -56.296875 Z M 7.078125 0.0820312 "/></g></g></g><g fill="rgb(100%, 100%, 100%)" fill-opacity="1"><g transform="translate(119.111879, 201.441726)"><g><path d="M 7.078125 0 L 16.003906 0 L 16.003906 -56.296875 L 7.078125 -56.296875 Z M 7.078125 0 "/></g></g></g><g fill="rgb(100%, 100%, 100%)" fill-opacity="1"><g transform="translate(142.190708, 201.441726)"><g><path d="M 2.089844 0 L 45.761719 0 L 45.761719 -8.605469 L 14.796875 -8.605469 L 45.761719 -52.195312 L 45.761719 -56.296875 L 4.664062 -56.296875 L 4.664062 -48.011719 L 32.492188 -48.011719 L 2.089844 -5.066406 Z M 2.089844 0 "/></g></g></g><g fill="rgb(100%, 100%, 100%)" fill-opacity="1"><g transform="translate(191.162869, 201.441726)"><g><path d="M 2.089844 0 L 45.761719 0 L 45.761719 -8.605469 L 14.796875 -8.605469 L 45.761719 -52.195312 L 45.761719 -56.296875 L 4.664062 -56.296875 L 4.664062 -48.011719 L 32.492188 -48.011719 L 2.089844 -5.066406 Z M 2.089844 0 "/></g></g></g><g fill="rgb(100%, 100%, 100%)" fill-opacity="1"><g transform="translate(240.13503, 201.441726)"><g><path d="M 7.078125 0 L 16.003906 0 L 16.003906 -56.296875 L 7.078125 -56.296875 Z M 7.078125 0 "/></g></g></g><g fill="rgb(100%, 100%, 100%)" fill-opacity="1"><g transform="translate(263.213871, 201.441726)"><g><path d="M 32.410156 1.125 C 51.953125 1.125 61.203125 -12.789062 61.203125 -27.90625 C 61.203125 -43.027344 51.792969 -57.261719 32.570312 -57.261719 C 15.601562 -57.261719 3.617188 -44.875 3.617188 -27.828125 C 3.617188 -13.109375 12.867188 1.125 32.410156 1.125 Z M 32.410156 -7.15625 C 18.417969 -7.15625 12.546875 -17.773438 12.546875 -27.746094 C 12.546875 -39.96875 19.460938 -49.058594 32.570312 -49.058594 C 46.402344 -49.058594 52.273438 -38.121094 52.273438 -27.746094 C 52.273438 -17.128906 46.402344 -7.15625 32.410156 -7.15625 Z M 32.410156 -7.15625 "/></g></g></g><g fill="rgb(100%, 100%, 100%)" fill-opacity="1"><g transform="translate(125.710495, 239.912576)"><g><path d="M 10.28125 -2.734375 C 12.570312 -2.734375 14.164062 -3.890625 15.0625 -6.203125 L 18.390625 -4.953125 C 17.671875 -3.191406 16.617188 -1.878906 15.234375 -1.015625 C 13.859375 -0.160156 12.207031 0.265625 10.28125 0.265625 C 7.34375 0.265625 5.070312 -0.5625 3.46875 -2.21875 C 1.875 -3.882812 1.078125 -6.207031 1.078125 -9.1875 C 1.078125 -12.175781 1.847656 -14.472656 3.390625 -16.078125 C 4.941406 -17.679688 7.179688 -18.484375 10.109375 -18.484375 C 12.242188 -18.484375 13.984375 -18.050781 15.328125 -17.1875 C 16.671875 -16.332031 17.613281 -15.078125 18.15625 -13.421875 L 14.796875 -12.5 C 14.515625 -13.414062 13.957031 -14.140625 13.125 -14.671875 C 12.289062 -15.210938 11.3125 -15.484375 10.1875 -15.484375 C 8.457031 -15.484375 7.144531 -14.945312 6.25 -13.875 C 5.363281 -12.8125 4.921875 -11.25 4.921875 -9.1875 C 4.921875 -7.09375 5.378906 -5.492188 6.296875 -4.390625 C 7.210938 -3.285156 8.539062 -2.734375 10.28125 -2.734375 Z M 10.28125 -2.734375 "/></g></g></g><g fill="rgb(100%, 100%, 100%)" fill-opacity="1"><g transform="translate(148.366933, 239.912576)"><g><path d="M 19.484375 -9.1875 C 19.484375 -7.289062 19.109375 -5.625 18.359375 -4.1875 C 17.609375 -2.75 16.535156 -1.644531 15.140625 -0.875 C 13.742188 -0.113281 12.113281 0.265625 10.25 0.265625 C 7.382812 0.265625 5.140625 -0.578125 3.515625 -2.265625 C 1.890625 -3.953125 1.078125 -6.257812 1.078125 -9.1875 C 1.078125 -12.113281 1.882812 -14.394531 3.5 -16.03125 C 5.125 -17.664062 7.382812 -18.484375 10.28125 -18.484375 C 13.164062 -18.484375 15.421875 -17.65625 17.046875 -16 C 18.671875 -14.34375 19.484375 -12.070312 19.484375 -9.1875 Z M 15.59375 -9.1875 C 15.59375 -11.15625 15.125 -12.695312 14.1875 -13.8125 C 13.257812 -14.925781 11.957031 -15.484375 10.28125 -15.484375 C 8.570312 -15.484375 7.25 -14.925781 6.3125 -13.8125 C 5.382812 -12.707031 4.921875 -11.164062 4.921875 -9.1875 C 4.921875 -7.1875 5.394531 -5.609375 6.34375 -4.453125 C 7.300781 -3.304688 8.601562 -2.734375 10.25 -2.734375 C 11.957031 -2.734375 13.273438 -3.289062 14.203125 -4.40625 C 15.128906 -5.53125 15.59375 -7.125 15.59375 -9.1875 Z M 15.59375 -9.1875 "/></g></g></g><g fill="rgb(100%, 100%, 100%)" fill-opacity="1"><g transform="translate(172.496295, 239.912576)"><g><path d="M 18 -9.234375 C 18 -7.359375 17.628906 -5.71875 16.890625 -4.3125 C 16.160156 -2.914062 15.117188 -1.847656 13.765625 -1.109375 C 12.421875 -0.367188 10.878906 0 9.140625 0 L 1.765625 0 L 1.765625 -18.203125 L 8.359375 -18.203125 C 11.429688 -18.203125 13.804688 -17.429688 15.484375 -15.890625 C 17.160156 -14.347656 18 -12.128906 18 -9.234375 Z M 14.171875 -9.234375 C 14.171875 -11.191406 13.660156 -12.6875 12.640625 -13.71875 C 11.617188 -14.75 10.164062 -15.265625 8.28125 -15.265625 L 5.578125 -15.265625 L 5.578125 -2.953125 L 8.8125 -2.953125 C 10.445312 -2.953125 11.75 -3.515625 12.71875 -4.640625 C 13.6875 -5.765625 14.171875 -7.296875 14.171875 -9.234375 Z M 14.171875 -9.234375 "/></g></g></g><g fill="rgb(100%, 100%, 100%)" fill-opacity="1"><g transform="translate(195.152735, 239.912576)"><g><path d="M 1.765625 0 L 1.765625 -18.203125 L 5.578125 -18.203125 L 5.578125 0 Z M 1.765625 0 "/></g></g></g><g fill="rgb(100%, 100%, 100%)" fill-opacity="1"><g transform="translate(206.051629, 239.912576)"><g><path d="M 12.859375 0 L 4.921875 -14.015625 C 5.078125 -12.660156 5.15625 -11.566406 5.15625 -10.734375 L 5.15625 0 L 1.765625 0 L 1.765625 -18.203125 L 6.125 -18.203125 L 14.171875 -4.078125 C 14.015625 -5.367188 13.9375 -6.550781 13.9375 -7.625 L 13.9375 -18.203125 L 17.328125 -18.203125 L 17.328125 0 Z M 12.859375 0 "/></g></g></g><g fill="rgb(100%, 100%, 100%)" fill-opacity="1"><g transform="translate(228.708069, 239.912576)"><g><path d="M 10.421875 -2.734375 C 11.410156 -2.734375 12.367188 -2.875 13.296875 -3.15625 C 14.222656 -3.445312 14.941406 -3.816406 15.453125 -4.265625 L 15.453125 -6.78125 L 11.015625 -6.78125 L 11.015625 -9.609375 L 18.953125 -9.609375 L 18.953125 -2.90625 C 17.984375 -1.914062 16.722656 -1.140625 15.171875 -0.578125 C 13.628906 -0.015625 12.007812 0.265625 10.3125 0.265625 C 7.351562 0.265625 5.070312 -0.554688 3.46875 -2.203125 C 1.875 -3.847656 1.078125 -6.175781 1.078125 -9.1875 C 1.078125 -12.1875 1.878906 -14.484375 3.484375 -16.078125 C 5.085938 -17.679688 7.394531 -18.484375 10.40625 -18.484375 C 14.675781 -18.484375 17.394531 -16.898438 18.5625 -13.734375 L 15.046875 -12.671875 C 14.660156 -13.597656 14.0625 -14.296875 13.25 -14.765625 C 12.445312 -15.242188 11.5 -15.484375 10.40625 -15.484375 C 8.613281 -15.484375 7.25 -14.9375 6.3125 -13.84375 C 5.382812 -12.757812 4.921875 -11.207031 4.921875 -9.1875 C 4.921875 -7.125 5.398438 -5.53125 6.359375 -4.40625 C 7.328125 -3.289062 8.679688 -2.734375 10.421875 -2.734375 Z M 10.421875 -2.734375 "/></g></g></g></svg>